<svg width="25" height="25" viewBox="0 0 25 25" fill="none" xmlns="http://www.w3.org/2000/svg">
<path d="M17.759 5.83334C15.4836 5.83334 14.5219 6.90793 12.9372 6.90793C11.3124 6.90793 10.0731 5.84116 8.10122 5.84116C6.17113 5.84116 4.11292 7.00735 2.80588 8.994C0.970592 11.7955 1.28212 17.0718 4.25458 21.5668C5.31782 23.1759 6.73774 24.9805 8.60011 25H8.63397C10.2525 25 10.7334 23.9511 12.9609 23.9388H12.9947C15.189 23.9388 15.6292 24.9939 17.241 24.9939H17.2748C19.1372 24.9743 20.6333 22.9748 21.6965 21.3719C22.4618 20.2191 22.7462 19.6405 23.3332 18.3363C19.0333 16.7211 18.3426 10.6885 22.595 8.37572C21.297 6.76719 19.473 5.83558 17.7534 5.83558L17.759 5.83334Z" fill="white"/>
<path d="M16.6284 0C15.5489 0.088228 14.2893 0.915298 13.5516 1.99514C12.8823 2.97377 12.3317 4.42547 12.5476 5.83333H12.634C13.7837 5.83333 14.9605 5.00031 15.6478 3.93291C16.31 2.91694 16.812 1.47714 16.6284 0Z" fill="white"/>
</svg>
