<svg width="40" height="40" viewBox="0 0 40 40" fill="none" xmlns="http://www.w3.org/2000/svg">
<path d="M5 15.0001C5 13.1591 6.49238 11.6667 8.33333 11.6667H9.88272C10.9972 11.6667 12.038 11.1097 12.6562 10.1824L14.0104 8.15108C14.6287 7.22375 15.6694 6.66675 16.784 6.66675H23.216C24.3305 6.66675 25.3713 7.22375 25.9895 8.15108L27.3438 10.1824C27.962 11.1097 29.0028 11.6667 30.1173 11.6667H31.6667C33.5077 11.6667 35 13.1591 35 15.0001V30.0001C35 31.8411 33.5077 33.3334 31.6667 33.3334H8.33333C6.49238 33.3334 5 31.8411 5 30.0001V15.0001Z" stroke="white" stroke-width="2" stroke-linecap="round" stroke-linejoin="round"/>
<path d="M25 21.6667C25 24.4282 22.7615 26.6667 20 26.6667C17.2385 26.6667 15 24.4282 15 21.6667C15 18.9052 17.2385 16.6667 20 16.6667C22.7615 16.6667 25 18.9052 25 21.6667Z" stroke="white" stroke-width="2" stroke-linecap="round" stroke-linejoin="round"/>
</svg>
