<svg width="40" height="40" viewBox="0 0 40 40" fill="none" xmlns="http://www.w3.org/2000/svg">
<path d="M1 14.3125C1 12.0343 2.89035 10.1875 5.22222 10.1875H7.18477C8.5965 10.1875 9.9148 9.49821 10.6979 8.35064L12.4132 5.83686C13.1963 4.68929 14.5146 4 15.9264 4H24.0736C25.4853 4 26.8037 4.68929 27.5867 5.83686L29.3022 8.35064C30.0852 9.49821 31.4036 10.1875 32.8153 10.1875H34.7778C37.1097 10.1875 39 12.0343 39 14.3125V32.875C39 35.1532 37.1097 37 34.7778 37H5.22222C2.89035 37 1 35.1532 1 32.875V14.3125Z" stroke="white" stroke-width="2" stroke-linecap="round" stroke-linejoin="round"/>
<path d="M27 23C27 26.8661 23.8661 30 20 30C16.1339 30 13 26.8661 13 23C13 19.1339 16.1339 16 20 16C23.8661 16 27 19.1339 27 23Z" stroke="white" stroke-width="2" stroke-linecap="round" stroke-linejoin="round"/>
</svg>
