<svg width="24" height="24" viewBox="0 0 24 24" fill="none" xmlns="http://www.w3.org/2000/svg">
<path d="M4.5 7.5C5.328 7.5 6 8.172 6 9V19.5C6 20.328 5.328 21 4.5 21H1.5C0.673 21 0 20.328 0 19.5V9C0 8.172 0.673 7.5 1.5 7.5H4.5ZM13.5 3C14.328 3 15 3.672 15 4.5V19.5C15 20.328 14.328 21 13.5 21H10.5C9.673 21 9 20.328 9 19.5V4.5C9 3.672 9.673 3 10.5 3H13.5ZM22.5 10.5C23.328 10.5 24 11.172 24 12V19.5C24 20.328 23.328 21 22.5 21H19.5C18.672 21 18 20.328 18 19.5V12C18 11.172 18.672 10.5 19.5 10.5H22.5Z" fill="white"/>
</svg>
