<svg width="25" height="25" viewBox="0 0 25 25" fill="none" xmlns="http://www.w3.org/2000/svg">
<g clip-path="url(#clip0_116_72)">
<path d="M11.7263 0.00417945C11.3409 0.0147003 10.9604 0.0468878 10.5802 0.103138C10.0169 0.159492 9.45465 0.441367 8.83527 0.723034C8.04673 1.06095 7.25746 1.39866 6.52527 1.45501C5.28611 1.84928 4.89194 2.4123 4.55392 2.86293C4.55392 2.91918 4.49767 2.97533 4.49767 2.97533C4.04715 3.87637 3.99007 4.77741 4.15913 5.67866C4.32798 6.24189 4.5535 6.7497 4.72246 7.25658C5.11673 8.32678 5.51184 9.34064 5.68079 10.5235C5.84975 10.8614 6.01777 11.3121 6.13038 11.7627C6.41204 12.6639 6.69496 13.6776 7.53975 14.4661L7.54569 14.4631C7.56392 14.4822 7.57704 14.5035 7.5959 14.5223C7.6034 14.5186 7.61059 14.5157 7.61809 14.512L7.5959 13.9027C8.27184 12.8889 9.2285 12.213 10.5803 11.9314C11.1214 11.8175 11.7063 11.7754 12.312 11.7982C12.9434 11.8151 13.5714 11.8974 14.1858 12.0438C15.7065 12.438 16.8889 13.2269 16.9454 13.9027C16.9738 14.2724 16.9868 14.6269 16.9793 14.9823C16.9783 15.049 16.9745 15.1162 16.972 15.1833L17.1139 15.2544C17.192 15.2153 17.2623 15.1429 17.3284 15.0563C17.3292 15.0552 17.3305 15.0542 17.3313 15.0533C17.3332 15.051 17.3354 15.047 17.3373 15.0445C17.3785 14.9887 17.4151 14.9157 17.4526 14.8433C17.4722 14.8041 17.4913 14.7531 17.5103 14.7088C17.7236 14.2273 17.8874 13.5071 18.0707 12.6635C18.127 12.3819 18.1844 12.1568 18.2408 11.9315C18.6914 10.9176 19.3102 10.0167 19.9297 9.17189C20.9435 7.76376 21.9013 6.46751 21.7886 4.94678C19.9303 1.34178 17.3388 0.778346 15.987 0.496784C15.7617 0.440429 15.6503 0.440638 15.4812 0.384284C14.0873 0.130846 12.8827 -0.0275914 11.7263 0.00417945ZM16.9793 14.9823C16.985 14.6408 16.9736 14.2991 16.9453 13.9588C16.8889 13.2265 15.7065 12.4379 14.1294 12.0436C13.5169 11.9044 12.9041 11.8205 12.312 11.7982C11.7506 11.784 11.2018 11.824 10.6926 11.9312C9.39715 12.2128 8.38402 12.8888 7.76444 13.9025L7.81767 15.3931C8.51267 15.0225 9.62246 14.482 11.0875 14.3521C11.1564 14.346 11.23 14.346 11.3004 14.3418C11.423 14.3282 11.5782 14.296 11.7633 14.296C13.4378 14.296 15.1677 14.8518 16.8432 16.0129C16.8838 15.7271 16.9068 15.4411 16.9172 15.1552L16.963 15.1789C16.9659 15.1141 16.978 15.0469 16.9793 14.9823ZM11.7249 0.0603253C11.8539 0.0567836 11.9892 0.070742 12.1196 0.0722003C11.8801 0.0699086 11.6417 0.0749086 11.4039 0.0884503C11.5112 0.0820961 11.6171 0.063242 11.7249 0.0603253ZM12.2439 0.0765753C12.9264 0.0911586 13.6247 0.150638 14.3676 0.264388C13.6557 0.161575 12.9461 0.0903253 12.2439 0.0765753ZM10.8744 0.134284C10.7953 0.143346 10.7154 0.148138 10.6364 0.159388C9.78559 0.28095 8.78829 0.890117 7.77184 1.24793C8.14111 1.11012 8.5159 0.939909 8.89132 0.779075C9.45455 0.497409 10.0733 0.215742 10.5802 0.159388C10.678 0.144909 10.7766 0.145534 10.8744 0.134284ZM10.6364 0.384284C10.8054 0.384284 11.0309 0.384075 11.1999 0.440429C11.0514 0.403242 10.9295 0.413346 10.8138 0.425638C10.9265 0.433935 11.0375 0.457808 11.1436 0.496575C11.7474 1.53949 10.6994 5.99564 10.4367 8.98533C10.5991 10.0557 10.7636 11.0648 10.9188 11.8188C10.1866 9.96012 9.4535 6.69272 9.3409 4.15835C9.28465 3.14449 9.34194 2.24314 9.56715 1.5673C9.79257 0.891471 10.1294 0.440638 10.6364 0.384284ZM13.9032 0.666575C13.0584 2.86324 12.9465 7.03033 12.8902 8.32574C12.8339 8.88897 12.8901 10.1278 12.9464 11.0291C12.9464 11.2544 13.0027 11.4796 13.0027 11.7049C13.0027 11.4796 12.9464 11.3105 12.9464 11.0853C12.4958 7.70595 11.9318 3.65178 13.9032 0.666575ZM17.3949 1.06001C17.1132 3.31293 15.9316 4.38397 15.5374 6.58064C15.4248 8.32668 15.1988 10.3538 15.1426 12.0998C15.0862 10.3538 15.1418 8.49553 15.4235 6.63689C15.7051 4.72189 16.3246 2.80605 17.3949 1.06001ZM6.58132 1.51105C6.20829 1.63543 5.92298 1.76939 5.68809 1.90741C5.92944 1.76595 6.2085 1.6297 6.58132 1.51105ZM6.80017 1.71668C7.02465 1.71928 7.25684 1.79314 7.42579 1.9622C7.41882 1.95803 7.41767 1.95876 7.411 1.9548C7.54965 2.05158 7.68871 2.17283 7.82059 2.35553C7.6085 3.36314 8.08652 5.51356 7.86204 7.21949C7.94152 8.83251 7.93673 10.5324 8.74642 11.8647C7.726 10.2911 7.52142 8.28397 7.36954 6.41053C7.25204 5.27439 7.15757 4.22626 6.886 3.38626C6.736 3.06887 6.60642 2.78783 6.48673 2.53001C6.461 2.49158 6.44017 2.44835 6.41277 2.41178C6.30007 2.29908 6.24413 2.13095 6.24413 2.01835C6.24413 1.9621 6.30027 1.8498 6.35663 1.8498C6.41288 1.79345 6.52496 1.7922 6.58132 1.73585C6.6534 1.72186 6.72675 1.71544 6.80017 1.71668ZM5.39819 2.35553C5.33527 2.37647 5.30204 2.39824 5.25184 2.41908C5.436 2.38366 5.62861 2.45439 5.79309 2.75033C5.59757 3.67908 6.24767 6.25918 6.23975 8.06699C6.56517 9.99179 6.81225 12.0772 7.87684 13.3953C6.63767 11.9872 6.13111 9.50908 5.73694 7.42512C5.39882 5.79178 5.11704 4.38408 4.55382 3.93345C4.49757 3.82085 4.44142 3.76366 4.44142 3.65105C4.44142 3.4821 4.44121 3.25668 4.55382 3.03137C4.26507 3.69147 4.13225 4.35147 4.16777 5.01158C4.12142 4.33585 4.25704 3.6673 4.55382 3.03137C4.55382 2.97512 4.61007 2.97533 4.61007 2.91897C4.62257 2.9023 4.64277 2.88262 4.6559 2.86574C4.72027 2.76335 4.79215 2.66887 4.891 2.59803C4.94902 2.53397 4.99152 2.47397 5.05663 2.40876C5.00184 2.46658 4.96579 2.52251 4.91757 2.58033C4.946 2.56158 4.97204 2.54199 5.00486 2.52564C5.11746 2.41293 5.22923 2.35553 5.39819 2.35553ZM5.00486 2.52564C5.0009 2.53345 4.99694 2.5372 4.99298 2.5448C5.006 2.53449 5.01819 2.52314 5.03152 2.51376C5.02382 2.51762 5.01257 2.52178 5.00486 2.52564ZM20.3807 3.7072C20.3789 3.71262 20.3765 3.71803 20.3748 3.72345C20.4141 3.71824 20.453 3.70543 20.493 3.7072C20.4536 3.70491 20.4135 3.71793 20.3732 3.72793C19.4738 6.4798 18.4072 9.23251 17.3401 11.9844C17.3396 11.9854 17.3391 11.9864 17.3385 11.9873C17.2475 12.4719 17.0948 12.9083 16.7765 13.2267C17.2271 12.7197 17.2821 11.9864 17.3385 11.0852C17.3948 10.2404 17.3952 9.33928 17.8458 8.43803C17.8458 8.38272 17.847 8.32783 17.9005 8.27241C17.9008 8.27147 17.9017 8.27043 17.902 8.26949C18.0034 7.90241 18.1125 7.55231 18.2318 7.20908C18.6676 5.86574 19.4189 3.91189 20.3288 3.72939C20.3458 3.72397 20.3643 3.71064 20.3807 3.7072ZM8.72132 16.8869L8.38402 16.9993C8.55309 17.2246 8.66486 17.3941 8.77746 17.4503C8.89007 17.5066 9.00329 17.5628 9.17225 17.5628C9.22861 17.5628 9.3408 17.5628 9.39715 17.5066L10.243 17.2255C10.2993 17.2255 10.3553 17.1693 10.4116 17.1693C10.5242 17.1693 10.58 17.1693 10.6926 17.2255L10.9751 17.5066L11.256 17.4503C11.1434 17.2814 10.9753 17.1132 10.8627 17.057C10.75 17.0006 10.6367 16.943 10.4679 16.943H10.3554L9.4533 17.2818H9.28475C9.17204 17.2818 9.06007 17.2818 9.00371 17.2255C8.94746 17.1693 8.83402 17.0558 8.72132 16.8869ZM6.01788 17.4504C5.73632 17.6193 5.34184 17.9008 4.77861 18.1262C4.21538 18.3515 3.76465 18.5767 3.53934 18.802C3.31402 19.0273 3.20215 19.2526 3.20215 19.4778C3.20215 19.5905 3.25809 19.6478 3.37069 19.7041C3.42694 19.7604 3.54069 19.7602 3.59694 19.8166C4.38548 20.1545 5.17329 20.5477 5.90548 20.9419C6.01819 20.9982 6.13163 21.1119 6.18798 21.1682C6.24423 21.2245 6.30027 21.2245 6.35652 21.2245C6.46923 21.2245 6.63725 21.1685 6.74996 21.0557C6.86257 20.9432 6.91996 20.8297 6.91996 20.7172C6.91996 20.6045 6.86267 20.5487 6.74996 20.4924C6.74996 20.4924 6.29913 20.2669 5.51059 19.9289C5.00371 19.7037 4.55444 19.4782 4.27277 19.3093C4.44184 19.0276 4.77902 18.8025 5.2859 18.5772C5.84913 18.3519 6.24382 18.1266 6.41277 17.9576C6.46902 17.9013 6.46902 17.8453 6.46902 17.789C6.46902 17.7327 6.41288 17.6191 6.35652 17.5627C6.30027 17.5065 6.18673 17.4503 6.07413 17.4503L6.01788 17.4504ZM17.7335 17.4504C17.6773 17.4504 17.565 17.5064 17.5087 17.5627C17.4524 17.6753 17.3949 17.7327 17.3949 17.789V17.8452C17.5638 18.0142 17.7904 18.126 18.1283 18.2386C18.41 18.2948 18.6911 18.4086 18.9728 18.4648C19.3107 18.5775 19.536 18.7453 19.6486 18.9706V19.0282C19.6486 19.0846 19.5353 19.1966 19.31 19.3093C19.1973 19.3655 18.9719 19.535 18.6903 19.7603C18.4087 19.9293 18.2396 20.0974 18.0707 20.1537C17.8454 20.2664 17.6774 20.3797 17.6211 20.4924C17.5648 20.5487 17.5649 20.6046 17.5649 20.661C17.5649 20.7736 17.621 20.7731 17.6774 20.8857C17.7336 20.9983 17.8457 20.9996 17.902 20.9996C17.9583 20.9996 18.0143 20.9419 18.0707 20.9419C18.3523 20.7729 18.7469 20.5479 19.1976 20.1537C19.7044 19.7595 20.0991 19.4782 20.3244 19.3093C20.5498 19.1966 20.6616 19.0833 20.6616 18.9145C20.6616 18.8581 20.6618 18.746 20.5492 18.6896C20.155 18.2391 19.5925 17.9581 18.9165 17.7328C18.8039 17.6765 18.6349 17.6191 18.2969 17.5627C18.128 17.5065 17.9585 17.4503 17.8459 17.4503L17.7335 17.4504ZM14.6353 18.2948C14.3536 18.2948 14.1284 18.3521 13.9594 18.5211C13.7341 18.69 13.6783 18.9714 13.7346 19.3093C13.7346 19.5908 13.8466 19.8161 14.0156 20.0413C14.1845 20.2666 14.41 20.38 14.6353 20.38C14.8042 20.38 14.9174 20.3224 15.0863 20.2661C15.3679 20.0971 15.4811 19.8162 15.4811 19.3093C15.4811 18.915 15.3676 18.6338 15.1987 18.4648C15.0298 18.3522 14.8607 18.2948 14.6353 18.2948ZM9.96059 18.3511C9.67892 18.3511 9.45371 18.4083 9.28475 18.5772C9.05944 18.7462 9.0035 19.0275 9.05996 19.3654C9.05996 19.6471 9.17194 19.8722 9.3409 20.0975C9.50986 20.3228 9.73527 20.4362 9.96059 20.4362C10.1295 20.4362 10.2427 20.3787 10.4116 20.3223C10.6932 20.1533 10.805 19.8723 10.805 19.3654C10.805 18.9149 10.693 18.6337 10.524 18.5211C10.3551 18.4083 10.1859 18.3511 9.96059 18.3511ZM9.96059 19.0282C10.1295 19.0282 10.243 19.1403 10.243 19.3093C10.243 19.4782 10.0732 19.5902 9.96059 19.5902C9.79163 19.5902 9.67954 19.4782 9.67954 19.3093C9.67954 19.1403 9.79163 19.0282 9.96059 19.0282ZM14.5229 19.0845C14.6918 19.0845 14.8053 19.1965 14.8053 19.3654C14.8053 19.4781 14.6917 19.6465 14.5229 19.6465C14.3539 19.6465 14.2418 19.5344 14.2418 19.3654C14.2418 19.1965 14.3539 19.0845 14.5229 19.0845ZM11.707 21.2806L11.8757 21.6178C11.9319 21.7304 11.9878 21.7876 12.1005 21.9002C12.1567 21.9565 12.2703 22.0689 12.383 22.0689H12.4953C12.608 22.0689 12.6638 22.0689 12.7201 22.0126C12.7764 21.9564 12.8901 21.9566 12.9464 21.9002L13.115 21.7317C13.1712 21.6754 13.2275 21.6179 13.2275 21.5616C13.2837 21.5053 13.2834 21.4493 13.3398 21.393C13.3398 21.3367 13.396 21.2805 13.396 21.2805C13.3396 21.3932 13.2275 21.5051 13.1712 21.6178C13.0585 21.6741 13.0029 21.7878 12.8902 21.7878C12.7776 21.8442 12.6641 21.8441 12.5515 21.8441C12.4389 21.8441 12.3268 21.8442 12.2706 21.7878C12.1579 21.7878 12.1006 21.7318 12.0442 21.6754L11.8757 21.5054C11.8194 21.4491 11.7634 21.3369 11.707 21.2806ZM10.805 22.3513C9.62215 22.3513 8.89069 23.9279 7.201 22.5199C6.75038 25.2797 10.0742 25.5053 11.4823 24.3226C12.4398 23.4778 12.1567 22.295 10.805 22.3513ZM13.7908 22.3513C12.439 22.295 12.1575 23.4778 13.115 24.3226C14.5231 25.5054 17.8454 25.2797 17.3949 22.5199C15.7052 23.9279 15.03 22.3513 13.7908 22.3513Z" fill="white"/>
</g>
<defs>
<clipPath id="clip0_116_72">
<rect width="25" height="25" fill="white"/>
</clipPath>
</defs>
</svg>
