<svg width="76" height="76" viewBox="0 0 76 76" fill="none" xmlns="http://www.w3.org/2000/svg">
<path d="M19.7135 15.2351C18.4768 13.9985 16.4718 13.9985 15.2351 15.2351C13.9985 16.4718 13.9985 18.4768 15.2351 19.7135L33.5217 38L15.2353 56.2865C13.9986 57.5231 13.9986 59.5283 15.2353 60.7648C16.472 62.0014 18.477 62.0014 19.7136 60.7648L38 42.4783L56.2865 60.7648C57.5231 62.0014 59.5283 62.0014 60.7648 60.7648C62.0014 59.5283 62.0014 57.5231 60.7648 56.2865L42.4783 38L60.7652 19.7135C62.0017 18.4768 62.0017 16.4718 60.7652 15.2351C59.5286 13.9985 57.5234 13.9985 56.2869 15.2351L38 33.5217L19.7135 15.2351Z" fill="white"/>
</svg>
