<svg width="35" height="36" viewBox="0 0 35 36" fill="none" xmlns="http://www.w3.org/2000/svg">
<g clip-path="url(#clip0_171_99)">
<path d="M14 6.125H21C21 5.19674 20.6313 4.3065 19.9749 3.65013C19.3185 2.99375 18.4283 2.625 17.5 2.625C16.5717 2.625 15.6815 2.99375 15.0251 3.65013C14.3687 4.3065 14 5.19674 14 6.125ZM11.375 6.125C11.375 5.32065 11.5334 4.52418 11.8412 3.78106C12.149 3.03795 12.6002 2.36273 13.169 1.79397C13.7377 1.22521 14.4129 0.774048 15.1561 0.466238C15.8992 0.158428 16.6957 0 17.5 0C18.3043 0 19.1008 0.158428 19.8439 0.466238C20.5871 0.774048 21.2623 1.22521 21.831 1.79397C22.3998 2.36273 22.851 3.03795 23.1588 3.78106C23.4666 4.52418 23.625 5.32065 23.625 6.125H33.6875C34.0356 6.125 34.3694 6.26328 34.6156 6.50942C34.8617 6.75556 35 7.0894 35 7.4375C35 7.7856 34.8617 8.11944 34.6156 8.36558C34.3694 8.61172 34.0356 8.75 33.6875 8.75H31.3775L29.33 29.9443C29.1729 31.5682 28.4166 33.0754 27.2084 34.1719C26.0003 35.2685 24.427 35.8756 22.7955 35.875H12.2045C10.5733 35.8752 9.00043 35.2678 7.79266 34.1714C6.5849 33.0749 5.82878 31.5679 5.67175 29.9443L3.6225 8.75H1.3125C0.964403 8.75 0.630564 8.61172 0.384422 8.36558C0.138281 8.11944 0 7.7856 0 7.4375C0 7.0894 0.138281 6.75556 0.384422 6.50942C0.630564 6.26328 0.964403 6.125 1.3125 6.125H11.375ZM14.875 14.4375C14.875 14.0894 14.7367 13.7556 14.4906 13.5094C14.2444 13.2633 13.9106 13.125 13.5625 13.125C13.2144 13.125 12.8806 13.2633 12.6344 13.5094C12.3883 13.7556 12.25 14.0894 12.25 14.4375V27.5625C12.25 27.9106 12.3883 28.2444 12.6344 28.4906C12.8806 28.7367 13.2144 28.875 13.5625 28.875C13.9106 28.875 14.2444 28.7367 14.4906 28.4906C14.7367 28.2444 14.875 27.9106 14.875 27.5625V14.4375ZM21.4375 13.125C21.7856 13.125 22.1194 13.2633 22.3656 13.5094C22.6117 13.7556 22.75 14.0894 22.75 14.4375V27.5625C22.75 27.9106 22.6117 28.2444 22.3656 28.4906C22.1194 28.7367 21.7856 28.875 21.4375 28.875C21.0894 28.875 20.7556 28.7367 20.5094 28.4906C20.2633 28.2444 20.125 27.9106 20.125 27.5625V14.4375C20.125 14.0894 20.2633 13.7556 20.5094 13.5094C20.7556 13.2633 21.0894 13.125 21.4375 13.125ZM8.2845 29.6922C8.37889 30.6664 8.83268 31.5704 9.55739 32.2282C10.2821 32.8859 11.2258 33.2502 12.2045 33.25H22.7955C23.7742 33.2502 24.7179 32.8859 25.4426 32.2282C26.1673 31.5704 26.6211 30.6664 26.7155 29.6922L28.742 8.75H6.258L8.2845 29.6922Z" fill="#FF1212"/>
</g>
<defs>
<clipPath id="clip0_171_99">
<rect width="35" height="36" fill="white"/>
</clipPath>
</defs>
</svg>
