<svg width="30" height="30" viewBox="0 0 30 30" fill="none" xmlns="http://www.w3.org/2000/svg">
<path d="M20.3662 4.11647C20.6007 3.88213 20.9185 3.75049 21.25 3.75049C21.5815 3.75049 21.8993 3.88213 22.1338 4.11647L25.8838 7.86647C26.1181 8.10088 26.2497 8.41877 26.2497 8.75022C26.2497 9.08168 26.1181 9.39956 25.8838 9.63397L14.6337 20.884C14.3994 21.1184 14.0815 21.2502 13.75 21.2502H10C9.66848 21.2502 9.35054 21.1185 9.11612 20.8841C8.8817 20.6497 8.75 20.3317 8.75 20.0002V16.2502C8.75007 15.9187 8.88181 15.6008 9.11625 15.3665L20.3662 4.11647ZM11.25 16.7677V18.7502H13.2325L23.2325 8.75022L21.25 6.76772L11.25 16.7677ZM3.75 8.75022C3.75 8.08718 4.01339 7.4513 4.48223 6.98245C4.95107 6.51361 5.58696 6.25022 6.25 6.25022H12.5C12.8315 6.25022 13.1495 6.38192 13.3839 6.61634C13.6183 6.85076 13.75 7.1687 13.75 7.50022C13.75 7.83174 13.6183 8.14968 13.3839 8.3841C13.1495 8.61853 12.8315 8.75022 12.5 8.75022H6.25V23.7502H21.25V17.5002C21.25 17.1687 21.3817 16.8508 21.6161 16.6163C21.8505 16.3819 22.1685 16.2502 22.5 16.2502C22.8315 16.2502 23.1495 16.3819 23.3839 16.6163C23.6183 16.8508 23.75 17.1687 23.75 17.5002V23.7502C23.75 24.4133 23.4866 25.0491 23.0178 25.518C22.5489 25.9868 21.913 26.2502 21.25 26.2502H6.25C5.58696 26.2502 4.95107 25.9868 4.48223 25.518C4.01339 25.0491 3.75 24.4133 3.75 23.7502V8.75022Z" fill="#14FFED"/>
</svg>
