<svg width="29" height="29" viewBox="0 0 29 29" fill="none" xmlns="http://www.w3.org/2000/svg">
<g clip-path="url(#clip0_116_2)">
<path d="M21.4168 0.471717C21.7189 0.169677 22.1286 0 22.5558 0C22.983 0 23.3928 0.169677 23.6949 0.471717L28.5283 5.30511C28.8303 5.60724 29 6.01696 29 6.44418C29 6.87139 28.8303 7.28111 28.5283 7.58325L14.0281 22.0834C13.726 22.3856 13.3163 22.5554 12.889 22.5555H8.05565C7.62835 22.5555 7.21856 22.3857 6.91641 22.0836C6.61426 21.7814 6.44452 21.3716 6.44452 20.9443V16.111C6.44461 15.6837 6.61442 15.274 6.91658 14.9719L21.4168 0.471717ZM9.66678 16.778V19.3332H12.222L25.1111 6.44418L22.5558 3.88892L9.66678 16.778ZM0 6.44418C0 5.58958 0.339487 4.76999 0.943778 4.16569C1.54807 3.5614 2.36766 3.22192 3.22226 3.22192H11.2779C11.7052 3.22192 12.115 3.39166 12.4172 3.69381C12.7193 3.99595 12.889 4.40575 12.889 4.83305C12.889 5.26034 12.7193 5.67014 12.4172 5.97229C12.115 6.27443 11.7052 6.44418 11.2779 6.44418H3.22226V25.7777H22.5558V17.7221C22.5558 17.2948 22.7256 16.885 23.0277 16.5828C23.3299 16.2807 23.7397 16.111 24.167 16.111C24.5943 16.111 25.0041 16.2807 25.3062 16.5828C25.6083 16.885 25.7781 17.2948 25.7781 17.7221V25.7777C25.7781 26.6323 25.4386 27.4519 24.8343 28.0562C24.23 28.6605 23.4104 29 22.5558 29H3.22226C2.36766 29 1.54807 28.6605 0.943778 28.0562C0.339487 27.4519 0 26.6323 0 25.7777V6.44418Z" fill="#14FFED"/>
</g>
<defs>
<clipPath id="clip0_116_2">
<rect width="29" height="29" fill="white"/>
</clipPath>
</defs>
</svg>
