<svg width="100" height="100" viewBox="0 0 100 100" fill="none" xmlns="http://www.w3.org/2000/svg">
<path fill-rule="evenodd" clip-rule="evenodd" d="M48.4692 18.3574H13.9564C11.0506 18.3574 8.2638 19.5117 6.20907 21.5665C4.15434 23.6212 3 26.408 3 29.3138V88.4786C3 91.3845 4.15434 94.1713 6.20907 96.226C8.2638 98.2807 11.0506 99.4351 13.9564 99.4351H74.2169C80.2429 99.4351 85.1733 93.9568 85.1733 87.9308V44.6529L63.2604 67.6614C61.617 69.3049 59.4257 70.9483 56.6866 71.4961L41.8954 74.7831C32.5824 76.4265 23.8172 67.6614 25.4607 57.8006L28.7476 41.9137C29.2955 39.1746 30.9389 36.4355 32.5824 34.7921L49.0171 17.8096L48.4692 18.3574Z" fill="white"/>
<path fill-rule="evenodd" clip-rule="evenodd" d="M95.0339 7.94878C94.0037 5.33933 92.0555 3.19626 89.5557 1.92274C87.557 1.04609 85.3421 0.786322 83.1948 1.17673C81.0476 1.56715 79.0658 2.58995 77.5036 4.11403L74.2167 7.40096L90.1035 23.8356L92.8426 20.5487C93.9059 19.4638 94.7438 18.1791 95.3079 16.7688C95.8721 15.3584 96.1513 13.8502 96.1296 12.3314C96.1296 11.2357 96.1296 9.59225 95.0339 7.94878ZM81.8862 32.053L66.5472 15.6183L40.2517 43.0094L39.7039 44.6529L35.8691 61.0875C35.8691 62.731 37.5126 64.9223 39.1561 64.3745L53.9473 61.0875L55.5907 60.5397L81.3384 33.1486L81.8862 32.053Z" fill="white"/>
</svg>
