<svg width="28" height="28" viewBox="0 0 28 28" xmlns="http://www.w3.org/2000/svg">
<path d="M9.41866 14.2263L4.91416 9.72184C3.14083 11.655 2.46883 13.5917 2.45716 13.6313L2.3335 14L2.456 14.3687C2.48166 14.4468 5.158 22.1667 14.0632 22.1667C15.147 22.1667 16.134 22.0477 17.0405 21.8482L13.8368 18.6445C12.6833 18.588 11.5921 18.1043 10.7755 17.2877C9.95885 16.4711 9.47521 15.3798 9.41866 14.2263ZM14.0632 5.83334C11.899 5.83334 10.1257 6.30467 8.6475 6.99767L4.325 2.67517L2.67533 4.32484L23.6753 25.3248L25.325 23.6752L21.4773 19.8275C24.555 17.549 25.6528 14.4177 25.6692 14.3687L25.7917 14L25.6692 13.6313C25.6435 13.5532 22.9683 5.83334 14.0632 5.83334ZM16.2868 14.637C16.505 13.8472 16.3195 12.9582 15.7128 12.3503C15.1062 11.7425 14.216 11.5582 13.4262 11.7763L11.6668 10.017C12.3878 9.57365 13.2168 9.33713 14.0632 9.33334C16.6368 9.33334 18.7298 11.4263 18.7298 14C18.7264 14.8462 18.4894 15.675 18.045 16.3952L16.2868 14.637Z" />
</svg>
