<svg width="25" height="25" viewBox="0 0 25 25" fill="none" xmlns="http://www.w3.org/2000/svg">
<g clip-path="url(#clip0_411_18)">
<path d="M13.5 0L13.6389 0.00874996C13.904 0.0416548 14.1508 0.167599 14.3395 0.366264C14.5283 0.564929 14.6479 0.824729 14.6792 1.10375L14.6875 1.25V6.25L14.6934 6.4375C14.7359 7.03271 14.9793 7.59228 15.3796 8.01504C15.78 8.43779 16.3108 8.69583 16.8761 8.7425L17.0625 8.75H21.8125L21.9514 8.75875C22.2165 8.79165 22.4633 8.9176 22.652 9.11626C22.8408 9.31493 22.9604 9.57473 22.9917 9.85375L23 10V21.25C23.0001 22.2065 22.6529 23.1269 22.0295 23.8228C21.4061 24.5188 20.5536 24.9376 19.6465 24.9938L19.4375 25H7.5625C6.65381 25.0001 5.77945 24.6346 5.11832 23.9784C4.45718 23.3222 4.05925 22.4249 4.00594 21.47L4 21.25V3.75C3.99995 2.79349 4.34714 1.87311 4.97052 1.17717C5.59391 0.481241 6.44638 0.0623656 7.3535 0.00625014L7.5625 0H13.5Z" fill="white"/>
<path d="M22 7H17.0013L17 1L22 7Z" fill="white"/>
</g>
<defs>
<clipPath id="clip0_411_18">
<rect width="25" height="25" fill="white"/>
</clipPath>
</defs>
</svg>
