<svg width="24" height="24" viewBox="0 0 24 24" fill="none" xmlns="http://www.w3.org/2000/svg">
<g clip-path="url(#clip0_380_3)">
<path d="M4.75804 0.547065C4.70352 0.38241 4.59696 0.239935 4.45442 0.141106C4.31189 0.0422774 4.14109 -0.00755099 3.96778 -0.000871049C3.79446 0.00580889 3.62801 0.0686353 3.4935 0.178142C3.359 0.287648 3.26372 0.437902 3.22204 0.606265L0.0220358 13.4063C-0.0136521 13.5502 -0.00861101 13.7013 0.0365959 13.8426C0.0818028 13.9838 0.165395 14.1098 0.278036 14.2063L11.478 23.8063C11.6231 23.9306 11.8078 23.999 11.9988 23.999C12.1899 23.999 12.3746 23.9306 12.5196 23.8063L23.7196 14.2063C23.8323 14.1098 23.9159 13.9838 23.9611 13.8426C24.0063 13.7013 24.0113 13.5502 23.9756 13.4063L20.7756 0.606265C20.734 0.437902 20.6387 0.287648 20.5042 0.178142C20.3697 0.0686353 20.2032 0.00580889 20.0299 -0.000871049C19.8566 -0.00755099 19.6858 0.0422774 19.5432 0.141106C19.4007 0.239935 19.2942 0.38241 19.2396 0.547065L16.2236 9.59986H7.77564L4.75804 0.547065Z" fill="white"/>
</g>
<defs>
<clipPath id="clip0_380_3">
<rect width="24" height="24" fill="white"/>
</clipPath>
</defs>
</svg>
