<svg width="25" height="25" viewBox="0 0 25 25" fill="none" xmlns="http://www.w3.org/2000/svg">
<path d="M1.33 6.8875C2.37001 4.81655 3.96547 3.07564 5.93804 1.85934C7.91061 0.643034 10.1826 -0.000729461 12.5 6.20289e-07C15.8688 6.20289e-07 18.6988 1.2375 20.8625 3.25625L17.2788 6.84125C15.9825 5.6025 14.335 4.97125 12.5 4.97125C9.24375 4.97125 6.4875 7.17125 5.50625 10.125C5.25625 10.875 5.11375 11.675 5.11375 12.5C5.11375 13.325 5.25625 14.125 5.50625 14.875C6.48875 17.83 9.24375 20.0288 12.5 20.0288C14.1813 20.0288 15.6125 19.585 16.7325 18.835C17.3818 18.4075 17.9377 17.8528 18.3665 17.2044C18.7953 16.556 19.0882 15.8273 19.2275 15.0625H12.5V10.2275H24.2725C24.42 11.045 24.5 11.8975 24.5 12.7838C24.5 16.5913 23.1375 19.7963 20.7725 21.9713C18.705 23.8813 15.875 25 12.5 25C10.8583 25.0007 9.23255 24.6778 7.71568 24.0498C6.19881 23.4219 4.82056 22.5012 3.6597 21.3403C2.49884 20.1794 1.57812 18.8012 0.950168 17.2843C0.322217 15.7675 -0.000656077 14.1417 1.00089e-06 12.5C1.00089e-06 10.4825 0.482501 8.575 1.33 6.8875Z" fill="white"/>
</svg>
