<svg width="17" height="17" viewBox="0 0 17 17" fill="none" xmlns="http://www.w3.org/2000/svg">
<g clip-path="url(#clip0_123_2)">
<path d="M8.335 16.67C3.73158 16.67 0 12.9384 0 8.335C0 3.73158 3.73158 0 8.335 0C12.9384 0 16.67 3.73158 16.67 8.335C16.67 12.9384 12.9384 16.67 8.335 16.67ZM8.335 15.003C10.1035 15.003 11.7995 14.3005 13.05 13.05C14.3005 11.7995 15.003 10.1035 15.003 8.335C15.003 6.56654 14.3005 4.8705 13.05 3.62001C11.7995 2.36952 10.1035 1.667 8.335 1.667C6.56654 1.667 4.8705 2.36952 3.62001 3.62001C2.36952 4.8705 1.667 6.56654 1.667 8.335C1.667 10.1035 2.36952 11.7995 3.62001 13.05C4.8705 14.3005 6.56654 15.003 8.335 15.003ZM7.5015 4.1675H9.1685V5.8345H7.5015V4.1675ZM7.5015 7.5015H9.1685V12.5025H7.5015V7.5015Z" fill="#DDDDDD"/>
</g>
<defs>
<clipPath id="clip0_123_2">
<rect width="16.67" height="16.67" fill="white"/>
</clipPath>
</defs>
</svg>
