<svg width="26" height="25" viewBox="0 0 26 25" fill="none" xmlns="http://www.w3.org/2000/svg">
<g clip-path="url(#clip0_116_67)">
<path d="M14.5449 7.12881e-05C14.3562 0.00633406 14.1706 0.0498715 13.9988 0.128176C13.827 0.20648 13.6724 0.318003 13.5439 0.456321L7.91264 6.48549L3.89805 10.7834C3.31337 11.406 2.88213 12.1564 2.63868 12.9751C2.58651 13.1509 2.54305 13.3293 2.50847 13.5094C2.35239 14.3247 2.37442 15.164 2.57305 15.9699C2.66134 16.3334 2.78304 16.6881 2.93659 17.0292C3.25504 17.738 3.7042 18.3805 4.26055 18.923L8.71576 23.2907L8.75639 23.3303C11.0981 25.5855 14.8522 25.5522 17.1553 23.2532L19.6512 20.7615C20.2137 20.199 20.2137 19.2886 19.6543 18.7251C19.5212 18.5912 19.363 18.485 19.1887 18.4124C19.0144 18.3397 18.8276 18.3022 18.6388 18.3019C18.45 18.3016 18.2631 18.3386 18.0886 18.4107C17.9141 18.4827 17.7556 18.5885 17.622 18.7219L15.1262 21.2136C14.5443 21.7879 13.7617 22.1132 12.9441 22.1206C12.1265 22.128 11.3382 21.8169 10.746 21.2532L10.7251 21.2334L6.27097 16.8657C5.5918 16.199 5.25847 15.3355 5.28347 14.5084C5.28843 14.325 5.31146 14.1425 5.35222 13.9636C5.45692 13.5098 5.67931 13.0916 5.99701 12.7511L10.0106 8.45215C11.1126 7.2709 13.3481 7.12924 14.6251 8.16257L18.272 11.1115C18.8897 11.6115 19.7939 11.5147 20.2928 10.8959C20.532 10.5987 20.6436 10.2187 20.6032 9.83937C20.5628 9.46 20.3737 9.11212 20.0772 8.87195L16.4314 5.92299C15.5981 5.24903 14.5918 4.83445 13.5418 4.67091L15.6408 2.42299C15.8342 2.21495 15.9619 1.95438 16.0078 1.674C16.0537 1.39363 16.0157 1.10594 15.8987 0.847081C15.7816 0.58822 15.5906 0.369722 15.3498 0.219027C15.1089 0.0683317 14.8289 -0.0078423 14.5449 7.12881e-05ZM11.5595 13.349C11.3706 13.349 11.1835 13.3863 11.0089 13.4587C10.8344 13.531 10.6758 13.6371 10.5423 13.7708C10.4088 13.9045 10.303 14.0632 10.2308 14.2379C10.1587 14.4125 10.1217 14.5997 10.122 14.7886C10.1217 14.9776 10.1587 15.1647 10.2308 15.3394C10.303 15.514 10.4088 15.6727 10.5423 15.8064C10.6758 15.9401 10.8344 16.0462 11.0089 16.1186C11.1835 16.1909 11.3706 16.2282 11.5595 16.2282H22.1564C22.3453 16.2282 22.5324 16.1909 22.707 16.1186C22.8815 16.0462 23.0401 15.9401 23.1736 15.8064C23.3071 15.6727 23.4129 15.514 23.4851 15.3394C23.5572 15.1647 23.5942 14.9776 23.5939 14.7886C23.5942 14.5997 23.5572 14.4125 23.4851 14.2379C23.4129 14.0632 23.3071 13.9045 23.1736 13.7708C23.0401 13.6371 22.8815 13.531 22.707 13.4587C22.5324 13.3863 22.3453 13.349 22.1564 13.349H11.5595Z" fill="white"/>
</g>
<defs>
<clipPath id="clip0_116_67">
<rect width="25" height="25" fill="white" transform="translate(0.5)"/>
</clipPath>
</defs>
</svg>
