<svg width="68" height="68" viewBox="0 0 68 68" fill="none" xmlns="http://www.w3.org/2000/svg">
<path fill-rule="evenodd" clip-rule="evenodd" d="M26.7156 25.412H37.2386V30.6537C38.7544 27.639 42.6417 24.9303 48.4812 24.9303C59.6757 24.9303 62.3334 30.9313 62.3334 41.9417V62.3332H51.0001V44.4492C51.0001 38.179 49.4842 34.643 45.6252 34.643C40.2731 34.643 38.0489 38.4538 38.0489 44.4463V62.3332H26.7156V25.412ZM7.28175 61.8515H18.6151V24.9303H7.28175V61.8515ZM20.2386 12.8915C20.239 13.8414 20.0506 14.782 19.6843 15.6585C19.3181 16.535 18.7813 17.33 18.1051 17.9972C16.7349 19.3589 14.8802 20.1212 12.9484 20.1165C11.02 20.1152 9.16963 19.3549 7.79742 18C7.12368 17.3305 6.58867 16.5347 6.22306 15.6581C5.85744 14.7814 5.66839 13.8413 5.66675 12.8915C5.66675 10.9733 6.43175 9.13734 7.80025 7.783C9.17126 6.42629 11.0224 5.66566 12.9512 5.6665C14.8836 5.6665 16.7366 6.42867 18.1051 7.783C19.4707 9.13734 20.2386 10.9733 20.2386 12.8915Z" fill="white"/>
</svg>
