<svg width="28" height="28" viewBox="0 0 28 28" fill="none" xmlns="http://www.w3.org/2000/svg">
<g clip-path="url(#clip0_116_57)">
<path d="M23.8544 23.8607H19.7089V17.3631C19.7089 15.8138 19.6778 13.8196 17.5467 13.8196C15.386 13.8196 15.0562 15.5058 15.0562 17.2496V23.8607H10.9091V10.5H14.8913V12.32H14.9458C15.5027 11.2716 16.856 10.1624 18.8782 10.1624C23.0782 10.1624 23.856 12.9282 23.856 16.5262V23.8607H23.8544ZM6.22689 8.67222C5.91042 8.67263 5.59698 8.61058 5.30454 8.48961C5.0121 8.36864 4.74642 8.19115 4.52271 7.9673C4.29901 7.74345 4.12168 7.47765 4.00091 7.18513C3.88013 6.89261 3.81827 6.57914 3.81889 6.26267C3.8192 5.78641 3.96072 5.32094 4.22557 4.92512C4.49042 4.52929 4.8667 4.2209 5.30682 4.03893C5.74695 3.85695 6.23115 3.80958 6.69819 3.9028C7.16524 3.99601 7.59415 4.22563 7.9307 4.56261C8.26725 4.89959 8.49631 5.3288 8.58892 5.79597C8.68153 6.26314 8.63353 6.74727 8.45099 7.18716C8.26845 7.62705 7.95957 8.00293 7.56341 8.26727C7.16724 8.5316 6.70315 8.67253 6.22689 8.67222ZM8.30511 23.8607H4.14711V10.5H8.30667V23.8607H8.30511ZM25.9311 0H2.06733C0.922444 0 0 0.902222 0 2.01756V25.9824C0 27.0978 0.924 28 2.06578 28H25.9249C27.0667 28 28 27.0978 28 25.9824V2.01756C28 0.902222 27.0667 0 25.9249 0H25.9311Z" fill="white"/>
</g>
<defs>
<clipPath id="clip0_116_57">
<rect width="28" height="28" fill="white"/>
</clipPath>
</defs>
</svg>
