<svg width="67" height="68" viewBox="0 0 67 68" fill="none" xmlns="http://www.w3.org/2000/svg">
<g clip-path="url(#clip0_148_297)">
<path d="M66.4166 20.605V49C66.4167 51.2956 65.4543 53.5045 63.7264 55.1748C61.9984 56.845 59.6354 57.8503 57.1209 57.985L56.5416 58H10.4583C7.93943 58.0001 5.51577 57.123 3.68314 55.5481C1.85052 53.9733 0.747481 51.8197 0.599711 49.528L0.583252 49V20.605L31.673 39.496L32.0549 39.694C32.5049 39.8944 32.9991 39.9985 33.4999 39.9985C34.0007 39.9985 34.495 39.8944 34.945 39.694L35.3268 39.496L66.4166 20.605Z" fill="white"/>
<path d="M56.5416 10C60.0966 10 63.2138 11.71 64.9518 14.281L33.5 33.391L2.0481 14.281C2.87342 13.0593 4.00734 12.0352 5.35526 11.2941C6.70318 10.5531 8.226 10.1166 9.79668 10.021L10.4583 10H56.5416Z" fill="white"/>
</g>
<defs>
<clipPath id="clip0_148_297">
<rect width="67" height="68" fill="white"/>
</clipPath>
</defs>
</svg>
