<svg width="68" height="68" viewBox="0 0 68 68" fill="none" xmlns="http://www.w3.org/2000/svg">
<path d="M66.6401 34.4082C66.6401 30.3282 63.3761 27.0642 59.2961 27.4722C57.6641 27.4722 55.6241 28.2882 54.4001 29.5122C48.6881 25.8402 42.1601 23.3922 35.2241 23.3922L38.4881 7.88823L49.0961 10.3362C49.0961 13.1922 51.5441 15.2322 54.4001 15.2322C57.2561 15.2322 59.2961 12.7842 59.2961 9.92823C59.2961 7.07223 56.8481 5.03223 53.9921 5.03223C51.9521 5.03223 50.3201 6.25623 49.5041 7.88823L38.0801 5.03223H37.2641C36.8561 5.03223 36.8561 5.44023 36.8561 5.84823L32.7761 23.3922C25.8401 23.3922 19.3121 25.4322 13.6001 29.5122C10.7441 26.6562 6.25606 26.6562 3.40006 29.5122C0.544057 32.3682 0.544057 36.8562 3.40006 39.7122C3.80806 40.1202 4.62406 40.9362 5.44006 40.9362V42.9762C5.44006 53.9922 18.0881 62.9682 34.0001 62.9682C49.9121 62.9682 62.5601 53.9922 62.5601 42.9762V40.9362C65.0081 39.7122 66.6401 37.2642 66.6401 34.4082ZM17.6801 39.7122C17.6801 36.8562 20.1281 34.8162 22.5761 34.8162C25.4321 34.8162 27.4721 37.2642 27.4721 39.7122C27.4721 42.1602 25.0241 44.6082 22.5761 44.6082C19.7201 44.6082 17.6801 42.5682 17.6801 39.7122ZM46.2401 53.1762C42.5681 55.6242 38.4881 57.2562 34.0001 56.8482C29.5121 56.8482 25.4321 55.6242 21.7601 53.1762C21.3521 52.7682 21.3521 51.9522 21.7601 51.1362C22.1681 50.7282 22.9841 50.7282 23.3921 51.1362C26.2481 53.1762 29.9201 54.4002 33.5921 53.9922C37.2641 54.4002 40.9361 53.1762 43.7921 51.1362C44.2001 50.7282 45.0161 50.7282 45.8321 51.1362C46.6481 51.5442 46.6481 52.3602 46.2401 53.1762ZM45.0161 44.6082C42.1601 44.6082 40.1201 42.1602 40.1201 39.7122C40.1201 37.2642 42.5681 34.8162 45.0161 34.8162C47.8721 34.8162 49.9121 37.2642 49.9121 39.7122C50.3201 42.5682 47.8721 44.6082 45.0161 44.6082Z" fill="white"/>
</svg>
