<svg width="25" height="25" viewBox="0 0 25 25" fill="none" xmlns="http://www.w3.org/2000/svg">
<path d="M8.125 15.625C7.95924 15.625 7.80027 15.5592 7.68306 15.4419C7.56585 15.3247 7.5 15.1658 7.5 15C7.5 14.8342 7.56585 14.6753 7.68306 14.5581C7.80027 14.4408 7.95924 14.375 8.125 14.375H16.875C17.0408 14.375 17.1997 14.4408 17.3169 14.5581C17.4342 14.6753 17.5 14.8342 17.5 15C17.5 15.1658 17.4342 15.3247 17.3169 15.4419C17.1997 15.5592 17.0408 15.625 16.875 15.625H8.125ZM8.125 18.75C7.95924 18.75 7.80027 18.6842 7.68306 18.5669C7.56585 18.4497 7.5 18.2908 7.5 18.125C7.5 17.9592 7.56585 17.8003 7.68306 17.6831C7.80027 17.5658 7.95924 17.5 8.125 17.5H16.875C17.0408 17.5 17.1997 17.5658 17.3169 17.6831C17.4342 17.8003 17.5 17.9592 17.5 18.125C17.5 18.2908 17.4342 18.4497 17.3169 18.5669C17.1997 18.6842 17.0408 18.75 16.875 18.75H8.125Z" fill="white"/>
<path fill-rule="evenodd" clip-rule="evenodd" d="M13.9813 1.25H5.625C5.12772 1.25 4.65081 1.44754 4.29917 1.79918C3.94754 2.15081 3.75 2.62772 3.75 3.125V21.875C3.75 22.3723 3.94754 22.8492 4.29917 23.2008C4.65081 23.5525 5.12772 23.75 5.625 23.75H19.375C19.8723 23.75 20.3492 23.5525 20.7008 23.2008C21.0525 22.8492 21.25 22.3723 21.25 21.875V9.0025C21.2499 8.53309 21.0737 8.0808 20.7562 7.735L15.3638 1.8575C15.188 1.66593 14.9744 1.513 14.7364 1.40842C14.4984 1.30384 14.2412 1.24989 13.9813 1.25ZM5 3.125C5 2.95924 5.06585 2.80027 5.18306 2.68306C5.30027 2.56585 5.45924 2.5 5.625 2.5H13.9813C14.068 2.4999 14.1538 2.51786 14.2332 2.55272C14.3126 2.58758 14.3839 2.63859 14.4425 2.7025L19.835 8.58C19.941 8.6952 19.9998 8.84597 20 9.0025V21.875C20 22.0408 19.9342 22.1997 19.8169 22.3169C19.6997 22.4342 19.5408 22.5 19.375 22.5H5.625C5.45924 22.5 5.30027 22.4342 5.18306 22.3169C5.06585 22.1997 5 22.0408 5 21.875V3.125Z" fill="white"/>
<path d="M14.375 2.625V8.5H20.25" stroke="white" stroke-width="1.5" stroke-linecap="round" stroke-linejoin="round"/>
<path d="M10.1674 7.66614C10.3459 7.67161 10.5237 7.64117 10.6902 7.57664C10.8568 7.5121 11.0086 7.41478 11.1368 7.29045C11.265 7.16611 11.3669 7.0173 11.4365 6.85284C11.5061 6.68837 11.542 6.5116 11.542 6.33302C11.542 6.15443 11.5061 5.97766 11.4365 5.8132C11.3669 5.64873 11.265 5.49992 11.1368 5.37559C11.0086 5.25126 10.8568 5.15394 10.6902 5.0894C10.5237 5.02486 10.3459 4.99443 10.1674 4.99989C9.82093 5.0105 9.49218 5.15561 9.25083 5.40446C9.00949 5.65331 8.87451 5.98635 8.87451 6.33302C8.87451 6.67968 9.00949 7.01272 9.25083 7.26157C9.49218 7.51043 9.82093 7.65553 10.1674 7.66614Z" fill="white"/>
<path fill-rule="evenodd" clip-rule="evenodd" d="M12.8325 10.5551C12.8325 9.13758 11.6388 8.11133 10.1663 8.11133C8.69375 8.11133 7.5 9.13633 7.5 10.5551V11.2226C7.50033 11.3404 7.54736 11.4532 7.63078 11.5364C7.7142 11.6196 7.82719 11.6663 7.945 11.6663H12.3888C12.5063 11.666 12.619 11.6191 12.7022 11.536C12.7853 11.4528 12.8322 11.3402 12.8325 11.2226V10.5551Z" fill="white"/>
</svg>
