<svg width="68" height="68" viewBox="0 0 68 68" fill="none" xmlns="http://www.w3.org/2000/svg">
<g clip-path="url(#clip0_148_279)">
<path d="M49.5041 40.7491C48.6626 40.327 44.5231 38.2926 43.7525 38.0093C42.979 37.7288 42.418 37.5899 41.8541 38.4343C41.296 39.2758 39.681 41.1713 39.1908 41.7323C38.7006 42.2961 38.2076 42.3641 37.3661 41.9448C36.5246 41.5198 33.8103 40.6329 30.5945 37.7656C28.0926 35.533 26.4011 32.7761 25.911 31.9318C25.4208 31.0903 25.86 30.6341 26.2793 30.2148C26.659 29.8379 27.1236 29.2316 27.543 28.7414C27.9651 28.2484 28.104 27.8971 28.3873 27.3333C28.6678 26.7723 28.529 26.2821 28.3165 25.8599C28.104 25.4378 26.421 21.2926 25.7211 19.6068C25.0355 17.9663 24.3413 18.1901 23.8256 18.1618C23.2876 18.1403 22.7491 18.1309 22.2106 18.1334C21.6496 18.1334 20.7373 18.3431 19.9666 19.1874C19.196 20.0289 17.02 22.0661 17.02 26.2113C17.02 30.3536 20.0375 34.3571 20.4568 34.9209C20.879 35.4819 26.3955 43.9876 34.8416 47.6341C36.8505 48.5011 38.4173 49.0196 39.6413 49.4049C41.6586 50.0481 43.4946 49.9574 44.9425 49.7393C46.5603 49.4984 49.9235 47.7021 50.6261 45.7358C51.3288 43.7694 51.3288 42.0836 51.1163 41.7323C50.9066 41.3809 50.3485 41.1713 49.5041 40.7491ZM34.1418 61.7243H34.1305C29.1148 61.7247 24.1913 60.3761 19.876 57.8199L18.8531 57.2136L8.25362 59.9959L11.0813 49.6599L10.4155 48.6003C7.6117 44.1357 6.12845 38.9689 6.13712 33.6969C6.13995 18.2553 18.7058 5.69228 34.1531 5.69228C41.6331 5.69228 48.6655 8.61062 53.9525 13.9033C56.561 16.5004 58.6287 19.589 60.0356 22.9905C61.4426 26.3919 62.161 30.0387 62.1493 33.7196C62.1408 49.1613 49.5778 61.7243 34.1418 61.7243ZM57.9786 9.88278C54.8568 6.7404 51.1424 4.2488 47.0507 2.55238C42.959 0.855963 38.5712 -0.0115494 34.1418 0.000116103C15.5693 0.000116103 0.453454 15.1159 0.444954 33.6941C0.444954 39.6328 1.99479 45.4298 4.94429 50.5383L0.161621 68.0001L18.0258 63.3138C22.966 66.0052 28.5019 67.4157 34.1276 67.4165H34.1418C52.7115 67.4165 67.8301 52.3006 67.8386 33.7196C67.8523 29.2919 66.988 24.9054 65.2955 20.8139C63.6031 16.7224 61.1162 13.007 57.9786 9.88278Z" fill="white"/>
</g>
<defs>
<clipPath id="clip0_148_279">
<rect width="68" height="68" fill="white"/>
</clipPath>
</defs>
</svg>
