<svg width="25" height="25" viewBox="0 0 25 25" fill="none" xmlns="http://www.w3.org/2000/svg">
<g clip-path="url(#clip0_116_89)">
<path d="M24.8357 7.26514C24.8357 5.06787 23.2195 3.30029 21.2225 3.30029C18.5174 3.17383 15.7586 3.125 12.9393 3.125H12.0604C9.24786 3.125 6.48418 3.17383 3.77911 3.30078C1.78692 3.30078 0.170707 5.07812 0.170707 7.27539C0.0486368 9.01318 -0.00312104 10.7515 -0.000191354 12.4897C-0.00507417 14.228 0.0502644 15.9679 0.165824 17.7095C0.165824 19.9067 1.78204 21.689 3.77422 21.689C6.61602 21.8208 9.53106 21.8794 12.4949 21.8745C15.4637 21.8843 18.3706 21.8224 21.2156 21.689C23.2127 21.689 24.8289 19.9067 24.8289 17.7095C24.9461 15.9663 24.9998 14.228 24.9949 12.4849C25.006 10.7466 24.9529 9.00667 24.8357 7.26514ZM10.1072 17.2798V7.68506L17.1873 12.48L10.1072 17.2798Z" fill="white"/>
</g>
<defs>
<clipPath id="clip0_116_89">
<rect width="25" height="25" fill="white"/>
</clipPath>
</defs>
</svg>
